<svg width="103" height="48" viewBox="0 0 103 48" fill="none" xmlns="http://www.w3.org/2000/svg">
<line y1="47" x2="80" y2="47" stroke="white" stroke-width="2"/>
<line x1="21" y1="2" x2="101" y2="2" stroke="white" stroke-width="2"/>
<line x1="1" y1="18" x2="1" y2="48" stroke="white" stroke-width="2"/>
<line x1="101.5" y1="0.991333" x2="101.5" y2="30.9913" stroke="white" stroke-width="2"/>
<path d="M29.7528 19C29.4403 18.0436 29.0284 17.1866 28.517 16.429C28.0152 15.6619 27.4138 15.0085 26.7131 14.4688C26.0218 13.929 25.2358 13.517 24.3551 13.233C23.4744 12.9489 22.5085 12.8068 21.4574 12.8068C19.7339 12.8068 18.1667 13.2519 16.7557 14.142C15.3447 15.0322 14.2225 16.3438 13.3892 18.0767C12.5559 19.8097 12.1392 21.9356 12.1392 24.4545C12.1392 26.9735 12.5606 29.0994 13.4034 30.8324C14.2462 32.5653 15.3873 33.8769 16.8267 34.767C18.2661 35.6572 19.8854 36.1023 21.6847 36.1023C23.3513 36.1023 24.8191 35.7472 26.0881 35.0369C27.3665 34.3172 28.3608 33.304 29.071 31.9972C29.7907 30.6809 30.1506 29.1326 30.1506 27.3523L31.2301 27.5795H22.4801V24.4545H33.5597V27.5795C33.5597 29.9754 33.0483 32.0587 32.0256 33.8295C31.0123 35.6004 29.6108 36.9735 27.821 37.9489C26.0407 38.9148 23.9953 39.3977 21.6847 39.3977C19.1089 39.3977 16.8456 38.7917 14.8949 37.5795C12.9536 36.3674 11.4384 34.6439 10.3494 32.4091C9.26989 30.1742 8.73011 27.5227 8.73011 24.4545C8.73011 22.1534 9.03788 20.0843 9.65341 18.2472C10.2784 16.4006 11.1591 14.8286 12.2955 13.5312C13.4318 12.2339 14.7765 11.2396 16.3295 10.5483C17.8826 9.85701 19.5919 9.51136 21.4574 9.51136C22.9915 9.51136 24.4214 9.74337 25.7472 10.2074C27.0824 10.6619 28.2708 11.3106 29.3125 12.1534C30.3636 12.9867 31.2396 13.9858 31.9403 15.1506C32.6411 16.3059 33.1241 17.589 33.3892 19H29.7528ZM39.593 9.90909H43.7976L53.6839 34.0568H54.0249L63.9112 9.90909H68.1158V39H64.8203V16.8977H64.5362L55.4453 39H52.2635L43.1726 16.8977H42.8885V39H39.593V9.90909ZM74.2131 39V36.4432L89.8949 13.0341H74.0426V9.90909H94.0994V12.4659L78.4176 35.875H94.2699V39H74.2131Z" fill="white"/>
<path d="M29.7528 19L28.8023 19.3106L29.0276 20H29.7528V19ZM28.517 16.429L27.6803 16.9765L27.6842 16.9825L27.6882 16.9885L28.517 16.429ZM26.7131 14.4688L26.0976 15.257L26.1028 15.261L26.7131 14.4688ZM24.3551 13.233L24.6621 12.2812L24.6621 12.2812L24.3551 13.233ZM13.3892 18.0767L14.2904 18.5101L14.2904 18.5101L13.3892 18.0767ZM13.4034 30.8324L12.5041 31.2697L12.5041 31.2697L13.4034 30.8324ZM16.8267 34.767L16.3007 35.6175L16.8267 34.767ZM26.0881 35.0369L26.5765 35.9096L26.5786 35.9083L26.0881 35.0369ZM29.071 31.9972L28.1936 31.5174L28.1924 31.5196L29.071 31.9972ZM30.1506 27.3523L30.3566 26.3737L29.1506 26.1198V27.3523H30.1506ZM31.2301 27.5795V28.5795L31.4361 26.601L31.2301 27.5795ZM22.4801 27.5795H21.4801V28.5795H22.4801V27.5795ZM22.4801 24.4545V23.4545H21.4801V24.4545H22.4801ZM33.5597 24.4545H34.5597V23.4545H33.5597V24.4545ZM32.0256 33.8295L31.1596 33.3294L31.1576 33.3329L32.0256 33.8295ZM27.821 37.9489L28.2979 38.8278L28.2995 38.8269L27.821 37.9489ZM14.8949 37.5795L14.3653 38.4278L14.3671 38.4289L14.8949 37.5795ZM10.3494 32.4091L9.44898 32.8441L9.45048 32.8471L10.3494 32.4091ZM9.65341 18.2472L8.70619 17.9266L8.70522 17.9295L9.65341 18.2472ZM12.2955 13.5312L13.0477 14.1901L13.0477 14.1901L12.2955 13.5312ZM16.3295 10.5483L15.9229 9.63471L16.3295 10.5483ZM25.7472 10.2074L25.4168 11.1513L25.4249 11.154L25.7472 10.2074ZM29.3125 12.1534L28.6835 12.9309L28.6913 12.937L29.3125 12.1534ZM31.9403 15.1506L31.0835 15.6661L31.0853 15.6692L31.9403 15.1506ZM33.3892 19V20H34.5946L34.372 18.8153L33.3892 19ZM30.7034 18.6894C30.3649 17.6536 29.9141 16.7113 29.3459 15.8695L27.6882 16.9885C28.1427 17.6618 28.5157 18.4335 28.8023 19.3106L30.7034 18.6894ZM29.3538 15.8815C28.7929 15.0242 28.1159 14.2871 27.3233 13.6765L26.1028 15.261C26.7117 15.73 27.2374 16.2997 27.6803 16.9765L29.3538 15.8815ZM27.3285 13.6806C26.5398 13.0647 25.6482 12.5993 24.6621 12.2812L24.0481 14.1847C24.8234 14.4348 25.5038 14.7932 26.0976 15.2569L27.3285 13.6806ZM24.6621 12.2812C23.6698 11.9611 22.5988 11.8068 21.4574 11.8068V13.8068C22.4182 13.8068 23.2791 13.9366 24.0481 14.1847L24.6621 12.2812ZM21.4574 11.8068C19.5516 11.8068 17.7983 12.3019 16.2221 13.2963L17.2892 14.9878C18.535 14.2019 19.9162 13.8068 21.4574 13.8068V11.8068ZM16.2221 13.2963C14.6292 14.3012 13.39 15.7675 12.488 17.6433L14.2904 18.5101C15.055 16.92 16.0602 15.7632 17.2892 14.9878L16.2221 13.2963ZM12.488 17.6433C11.5727 19.5467 11.1392 21.8302 11.1392 24.4545H13.1392C13.1392 22.041 13.539 20.0727 14.2904 18.5101L12.488 17.6433ZM11.1392 24.4545C11.1392 27.0803 11.5779 29.3653 12.5041 31.2697L14.3027 30.395C13.5433 28.8335 13.1392 26.8667 13.1392 24.4545H11.1392ZM12.5041 31.2697C13.418 33.1488 14.6788 34.6145 16.3007 35.6175L17.3527 33.9165C16.0958 33.1393 15.0745 31.9819 14.3027 30.395L12.5041 31.2697ZM16.3007 35.6175C17.9083 36.6117 19.7118 37.1023 21.6847 37.1023V35.1023C20.059 35.1023 18.6239 34.7027 17.3527 33.9165L16.3007 35.6175ZM21.6847 37.1023C23.497 37.1023 25.1377 36.7148 26.5765 35.9095L25.5997 34.1643C24.5006 34.7795 23.2056 35.1023 21.6847 35.1023V37.1023ZM26.5786 35.9083C28.0232 35.0951 29.151 33.9442 29.9496 32.4747L28.1924 31.5196C27.5706 32.6637 26.7097 33.5394 25.5975 34.1655L26.5786 35.9083ZM29.9484 32.4769C30.7624 30.9883 31.1506 29.2689 31.1506 27.3523H29.1506C29.1506 28.9962 28.8191 30.3735 28.1936 31.5174L29.9484 32.4769ZM29.9446 28.3308L31.0241 28.5581L31.4361 26.601L30.3566 26.3737L29.9446 28.3308ZM31.2301 26.5795H22.4801V28.5795H31.2301V26.5795ZM23.4801 27.5795V24.4545H21.4801V27.5795H23.4801ZM22.4801 25.4545H33.5597V23.4545H22.4801V25.4545ZM32.5597 24.4545V27.5795H34.5597V24.4545H32.5597ZM32.5597 27.5795C32.5597 29.8302 32.0805 31.7349 31.1596 33.3294L32.8915 34.3297C34.0161 32.3825 34.5597 30.1206 34.5597 27.5795H32.5597ZM31.1576 33.3329C30.2362 34.9431 28.9695 36.1841 27.3425 37.0708L28.2995 38.8269C30.2521 37.7628 31.7884 36.2576 32.8935 34.3262L31.1576 33.3329ZM27.3441 37.0699C25.7298 37.9458 23.8524 38.3977 21.6847 38.3977V40.3977C24.1381 40.3977 26.3517 39.8838 28.2979 38.8278L27.3441 37.0699ZM21.6847 38.3977C19.2721 38.3977 17.1963 37.8322 15.4227 36.7302L14.3671 38.4289C16.495 39.7511 18.9457 40.3977 21.6847 40.3977V38.3977ZM15.4245 36.7313C13.6561 35.6271 12.2626 34.0523 11.2484 31.971L9.45048 32.8471C10.6143 35.2355 12.2511 37.1077 14.3653 38.4278L15.4245 36.7313ZM11.2499 31.9741C10.2495 29.9031 9.73011 27.4069 9.73011 24.4545H7.73011C7.73011 27.6386 8.2903 30.4454 9.44898 32.8441L11.2499 31.9741ZM9.73011 24.4545C9.73011 22.2417 10.0261 20.2824 10.6016 18.5649L8.70522 17.9295C8.04963 19.8861 7.73011 22.0651 7.73011 24.4545H9.73011ZM10.6006 18.5678C11.189 16.8295 12.0085 15.3766 13.0477 14.1901L11.5432 12.8724C10.3097 14.2806 9.36785 15.9717 8.70619 17.9266L10.6006 18.5678ZM13.0477 14.1901C14.0901 13.0001 15.3174 12.0934 16.7362 11.4619L15.9229 9.63471C14.2356 10.3858 12.7735 11.4677 11.5432 12.8724L13.0477 14.1901ZM16.7362 11.4619C18.1492 10.8329 19.7182 10.5114 21.4574 10.5114V8.51136C19.4655 8.51136 17.6159 8.88111 15.9229 9.63471L16.7362 11.4619ZM21.4574 10.5114C22.8893 10.5114 24.2066 10.7277 25.4168 11.1512L26.0775 9.26353C24.6362 8.75908 23.0936 8.51136 21.4574 8.51136V10.5114ZM25.4249 11.154C26.6546 11.5727 27.7381 12.1659 28.6835 12.9308L29.9415 11.376C28.8036 10.4553 27.5101 9.75119 26.0694 9.26074L25.4249 11.154ZM28.6913 12.937C29.6471 13.6948 30.4437 14.6027 31.0835 15.6661L32.7972 14.635C32.0355 13.3689 31.0801 12.2786 29.9337 11.3698L28.6913 12.937ZM31.0853 15.6692C31.72 16.7155 32.162 17.8843 32.4064 19.1847L34.372 18.8153C34.0861 17.2937 33.5622 15.8963 32.7954 14.632L31.0853 15.6692ZM33.3892 18H29.7528V20H33.3892V18ZM39.593 9.90909V8.90909H38.593V9.90909H39.593ZM43.7976 9.90909L44.723 9.5302L44.4687 8.90909H43.7976V9.90909ZM53.6839 34.0568L52.7585 34.4357L53.0128 35.0568H53.6839V34.0568ZM54.0249 34.0568V35.0568H54.696L54.9503 34.4357L54.0249 34.0568ZM63.9112 9.90909V8.90909H63.2401L62.9858 9.5302L63.9112 9.90909ZM68.1158 9.90909H69.1158V8.90909H68.1158V9.90909ZM68.1158 39V40H69.1158V39H68.1158ZM64.8203 39H63.8203V40H64.8203V39ZM64.8203 16.8977H65.8203V15.8977H64.8203V16.8977ZM64.5362 16.8977V15.8977H63.8662L63.6114 16.5173L64.5362 16.8977ZM55.4453 39V40H56.1153L56.3701 39.3804L55.4453 39ZM52.2635 39L51.3387 39.3804L51.5935 40H52.2635V39ZM43.1726 16.8977L44.0974 16.5173L43.8426 15.8977H43.1726V16.8977ZM42.8885 16.8977V15.8977H41.8885V16.8977H42.8885ZM42.8885 39V40H43.8885V39H42.8885ZM39.593 39H38.593V40H39.593V39ZM39.593 10.9091H43.7976V8.90909H39.593V10.9091ZM42.8721 10.288L52.7585 34.4357L54.6094 33.6779L44.723 9.5302L42.8721 10.288ZM53.6839 35.0568H54.0249V33.0568H53.6839V35.0568ZM54.9503 34.4357L64.8367 10.288L62.9858 9.5302L53.0994 33.6779L54.9503 34.4357ZM63.9112 10.9091H68.1158V8.90909H63.9112V10.9091ZM67.1158 9.90909V39H69.1158V9.90909H67.1158ZM68.1158 38H64.8203V40H68.1158V38ZM65.8203 39V16.8977H63.8203V39H65.8203ZM64.8203 15.8977H64.5362V17.8977H64.8203V15.8977ZM63.6114 16.5173L54.5205 38.6196L56.3701 39.3804L65.461 17.2781L63.6114 16.5173ZM55.4453 38H52.2635V40H55.4453V38ZM53.1883 38.6196L44.0974 16.5173L42.2478 17.2781L51.3387 39.3804L53.1883 38.6196ZM43.1726 15.8977H42.8885V17.8977H43.1726V15.8977ZM41.8885 16.8977V39H43.8885V16.8977H41.8885ZM42.8885 38H39.593V40H42.8885V38ZM40.593 39V9.90909H38.593V39H40.593ZM74.2131 39H73.2131V40H74.2131V39ZM74.2131 36.4432L73.3823 35.8866L73.2131 36.1392V36.4432H74.2131ZM89.8949 13.0341L90.7257 13.5907L91.7684 12.0341H89.8949V13.0341ZM74.0426 13.0341H73.0426V14.0341H74.0426V13.0341ZM74.0426 9.90909V8.90909H73.0426V9.90909H74.0426ZM94.0994 9.90909H95.0994V8.90909H94.0994V9.90909ZM94.0994 12.4659L94.9302 13.0225L95.0994 12.7699V12.4659H94.0994ZM78.4176 35.875L77.5868 35.3184L76.5441 36.875H78.4176V35.875ZM94.2699 35.875H95.2699V34.875H94.2699V35.875ZM94.2699 39V40H95.2699V39H94.2699ZM75.2131 39V36.4432H73.2131V39H75.2131ZM75.0439 36.9997L90.7257 13.5907L89.0641 12.4775L73.3823 35.8866L75.0439 36.9997ZM89.8949 12.0341H74.0426V14.0341H89.8949V12.0341ZM75.0426 13.0341V9.90909H73.0426V13.0341H75.0426ZM74.0426 10.9091H94.0994V8.90909H74.0426V10.9091ZM93.0994 9.90909V12.4659H95.0994V9.90909H93.0994ZM93.2686 11.9093L77.5868 35.3184L79.2484 36.4316L94.9302 13.0225L93.2686 11.9093ZM78.4176 36.875H94.2699V34.875H78.4176V36.875ZM93.2699 35.875V39H95.2699V35.875H93.2699ZM94.2699 38H74.2131V40H94.2699V38Z" fill="white"/>
</svg>
